<svg width="305" height="203" viewBox="0 0 305 203" fill="none" xmlns="http://www.w3.org/2000/svg">
<g opacity="0.923131">
<path d="M249.892 200.381C249.892 200.381 242.496 163.561 248.582 135.964C254.667 108.367 241.632 112.705 247.545 93.8984C253.457 75.0913 239.378 81.4031 245.967 62.4597C252.557 43.5163 239.104 43.7168 244.167 29C248.927 40.1559 261.091 47.5905 258.023 60.5028C254.955 73.4151 269.683 82.2051 263.23 96.7936C256.777 111.382 280.918 140.463 274.58 168.437C268.243 196.411 252.716 220.928 249.892 200.381Z" fill="url(#paint0_linear)"/>
<path d="M233.122 202.47C233.122 202.47 274.388 134.277 271.371 103.316C268.353 72.3558 293.999 71.47 295.209 99.6721C296.418 127.874 255.599 209.348 237.371 215.08C219.144 220.813 233.122 202.47 233.122 202.47Z" fill="url(#paint1_linear)"/>
<path d="M281.929 79.2767C281.929 79.2767 294.964 127.075 231.567 216.189" stroke="white" stroke-width="0.66"/>
<path d="M271.529 107.4C271.529 107.4 279.581 112.045 279.703 118.152C284.281 113.519 289.385 109.439 294.913 105.995" stroke="white" stroke-width="0.66"/>
<path d="M267.417 129.466C267.417 129.466 273.078 135.659 272.898 140.816C272.898 140.816 281.813 132.707 287.906 132.627" stroke="white" stroke-width="0.66"/>
<path d="M258.566 153.152C258.566 153.152 263.406 158.799 262.801 164.459C271.097 160.765 275.836 161.247 275.836 161.247" stroke="white" stroke-width="0.66"/>
<path d="M250.154 171.128C252.559 174.458 253.619 178.573 253.121 182.651C260.057 178.402 266.013 179.957 266.013 179.957" stroke="white" stroke-width="0.66"/>
<path d="M242.24 186.36C242.24 186.36 244.487 192.575 243.968 197.789C250.702 195.297 255.44 196.903 255.44 196.903" stroke="white" stroke-width="0.66"/>
<path d="M245.884 197.414C245.884 197.414 246.986 141.356 260.417 124.079C273.848 106.802 258.933 96.6401 247.612 112.952C236.291 129.264 229.953 193.065 238.617 203.313C247.281 213.561 245.884 197.414 245.884 197.414Z" fill="url(#paint2_linear)"/>
<path d="M263.175 105.815C263.175 105.815 237.45 129.336 241.649 206.157" stroke="white" stroke-width="0.66"/>
<path d="M258.789 126.455C258.789 126.455 252.257 126.189 249.888 129.775C248.909 125.294 247.408 120.944 245.416 116.812" stroke="white" stroke-width="0.66"/>
<path d="M252.934 141.118C252.934 141.118 247.245 142.674 245.408 145.807C245.408 145.807 243.161 137.633 239.568 135.292" stroke="white" stroke-width="0.66"/>
<path d="M249.312 158.539C249.312 158.539 244.314 160.08 242.542 163.667C238.999 158.352 236.003 156.861 236.003 156.861" stroke="white" stroke-width="0.66"/>
<path d="M247.54 172.374C244.852 173.455 242.672 175.513 241.44 178.135C238.912 173.008 234.786 171.69 234.786 171.69" stroke="white" stroke-width="0.66"/>
<path d="M246.51 184.415C246.51 184.415 242.845 187.296 241.188 190.558C238.12 186.554 234.707 185.719 234.707 185.719" stroke="white" stroke-width="0.66"/>
</g>
<g opacity="0.923131">
<path opacity="0.52181" fill-rule="evenodd" clip-rule="evenodd" d="M38.5382 185.843C38.8797 185.625 39.0558 185.222 38.9842 184.824C38.9392 184.564 38.7922 184.332 38.5759 184.18C38.3595 184.028 38.0916 183.969 37.8314 184.015C37.432 184.084 37.1133 184.386 37.0244 184.781C36.9355 185.176 37.094 185.586 37.4257 185.819C37.7573 186.051 38.1967 186.061 38.5382 185.843ZM30.9853 185.83C31.0543 186.229 30.8762 186.63 30.534 186.846C30.1918 187.062 29.7531 187.05 29.4226 186.817C29.0922 186.583 28.9352 186.173 29.0249 185.779C29.1147 185.384 29.4335 185.083 29.8325 185.015C30.0936 184.969 30.3624 185.029 30.5789 185.182C30.7954 185.335 30.9417 185.569 30.9853 185.83ZM23.1651 188.986C23.7094 188.895 24.077 188.38 23.9862 187.836C23.9442 187.574 23.7985 187.339 23.5819 187.184C23.3652 187.03 23.0956 186.969 22.8336 187.015C22.2893 187.107 21.9225 187.622 22.014 188.166C22.1055 188.71 22.6207 189.077 23.1651 188.986ZM16.9874 188.843C17.0739 189.386 16.705 189.898 16.162 189.987C15.6189 190.076 15.106 189.709 15.0142 189.167C14.9224 188.624 15.2863 188.109 15.8284 188.015C16.0921 187.969 16.3633 188.031 16.5812 188.186C16.799 188.342 16.9454 188.578 16.9874 188.843ZM8.52345 190.852C8.86918 190.639 9.05228 190.239 8.98689 189.838C8.89569 189.301 8.39299 188.933 7.85319 189.01C7.45182 189.07 7.12625 189.366 7.02912 189.76C6.93199 190.154 7.08257 190.568 7.41024 190.807C7.73792 191.047 8.17773 191.064 8.52345 190.852ZM1.15751 191.987C1.70025 191.901 2.07136 191.392 1.98841 190.848C1.94624 190.584 1.80014 190.346 1.58253 190.19C1.36493 190.033 1.09381 189.97 0.829342 190.014C0.287807 190.108 -0.0764868 190.621 0.0137088 191.164C0.103904 191.706 0.61477 192.074 1.15751 191.987ZM2.9853 196.83C3.05434 197.229 2.87618 197.63 2.534 197.846C2.19181 198.062 1.75308 198.05 1.42264 197.817C1.09219 197.583 0.935195 197.173 1.02494 196.779C1.11469 196.384 1.43348 196.083 1.83249 196.015C2.09364 195.969 2.36238 196.029 2.5789 196.182C2.79542 196.335 2.94174 196.569 2.9853 196.83ZM9.534 196.846C9.87618 196.63 10.0543 196.229 9.9853 195.83C9.94174 195.569 9.79542 195.335 9.5789 195.182C9.36238 195.029 9.09364 194.969 8.83249 195.015C8.43348 195.083 8.11469 195.384 8.02494 195.779C7.93519 196.173 8.09219 196.583 8.42264 196.817C8.75308 197.05 9.19181 197.062 9.534 196.846ZM17.9854 194.83C18.0789 195.374 17.7144 195.891 17.1709 195.985C16.6274 196.079 16.1102 195.716 16.0151 195.172C15.9201 194.629 16.2831 194.111 16.8263 194.015C17.0882 193.969 17.3577 194.029 17.5752 194.182C17.7927 194.335 17.9403 194.568 17.9854 194.83ZM24.1709 193.985C24.7144 193.891 25.0789 193.374 24.9854 192.829C24.8852 192.287 24.3701 191.924 23.8263 192.013C23.2831 192.109 22.9201 192.628 23.0151 193.171C23.1102 193.715 23.6274 194.079 24.1709 193.985ZM31.9854 191.83C32.0789 192.374 31.7144 192.891 31.1709 192.985C30.6274 193.079 30.1102 192.716 30.0151 192.172C29.9201 191.628 30.2831 191.11 30.8263 191.014C31.3709 190.922 31.8883 191.286 31.9854 191.83ZM39.1709 191.985C39.7144 191.891 40.0789 191.374 39.9854 190.83C39.8883 190.286 39.3709 189.922 38.8263 190.014C38.2831 190.11 37.9201 190.628 38.0151 191.172C38.1102 191.716 38.6274 192.079 39.1709 191.985ZM3.98537 202.83C4.07888 203.374 3.71441 203.891 3.17088 203.985C2.62736 204.079 2.11017 203.716 2.01512 203.172C1.92007 202.628 2.28307 202.11 2.82632 202.014C3.37093 201.922 3.88828 202.286 3.98537 202.83ZM10.1709 202.985C10.7144 202.891 11.0789 202.374 10.9854 201.83C10.8883 201.286 10.3709 200.922 9.82632 201.014C9.28307 201.11 8.92007 201.628 9.01512 202.172C9.11017 202.716 9.62736 203.079 10.1709 202.985ZM18.9853 200.83C19.0543 201.228 18.8762 201.629 18.534 201.845C18.1918 202.062 17.7531 202.05 17.4226 201.816C17.0922 201.583 16.9352 201.173 17.0249 200.778C17.1147 200.384 17.4335 200.082 17.8325 200.014C18.3757 199.922 18.8913 200.287 18.9853 200.83ZM25.534 199.845C25.8762 199.629 26.0543 199.228 25.9853 198.83C25.8913 198.287 25.3757 197.922 24.8325 198.014C24.4335 198.082 24.1147 198.384 24.0249 198.778C23.9352 199.173 24.0922 199.583 24.4226 199.816C24.7531 200.05 25.1918 200.062 25.534 199.845ZM32.9853 197.83C33.0543 198.229 32.8762 198.63 32.534 198.846C32.1918 199.062 31.7531 199.05 31.4226 198.817C31.0922 198.583 30.9352 198.173 31.0249 197.779C31.1147 197.384 31.4335 197.083 31.8325 197.015C32.0936 196.969 32.3624 197.029 32.5789 197.182C32.7954 197.335 32.9417 197.569 32.9853 197.83ZM40.534 197.846C40.8762 197.63 41.0543 197.229 40.9853 196.83C40.9417 196.569 40.7954 196.335 40.5789 196.182C40.3624 196.029 40.0936 195.969 39.8325 196.015C39.4335 196.083 39.1147 196.384 39.0249 196.779C38.9352 197.173 39.0922 197.583 39.4226 197.817C39.7531 198.05 40.1918 198.062 40.534 197.846ZM4.9853 208.83C5.05434 209.229 4.87618 209.63 4.534 209.846C4.19181 210.062 3.75308 210.05 3.42264 209.817C3.09219 209.583 2.93519 209.173 3.02494 208.779C3.11469 208.384 3.43348 208.083 3.83249 208.015C4.09364 207.969 4.36238 208.029 4.5789 208.182C4.79542 208.335 4.94174 208.569 4.9853 208.83ZM11.534 208.846C11.8762 208.63 12.0543 208.229 11.9853 207.83C11.9417 207.569 11.7954 207.335 11.5789 207.182C11.3624 207.029 11.0936 206.969 10.8325 207.015C10.4335 207.083 10.1147 207.384 10.0249 207.779C9.93519 208.173 10.0922 208.583 10.4226 208.817C10.7531 209.05 11.1918 209.062 11.534 208.846ZM19.9854 206.83C20.0789 207.374 19.7144 207.891 19.1709 207.985C18.6274 208.079 18.1102 207.716 18.0151 207.172C17.9201 206.628 18.2831 206.11 18.8263 206.014C19.3709 205.922 19.8883 206.286 19.9854 206.83ZM26.1709 205.985C26.7144 205.891 27.0789 205.374 26.9854 204.83C26.9403 204.568 26.7927 204.335 26.5752 204.182C26.3577 204.029 26.0882 203.969 25.8263 204.015C25.2831 204.111 24.9201 204.629 25.0151 205.172C25.1102 205.716 25.6274 206.079 26.1709 205.985ZM34.9854 203.83C35.0789 204.374 34.7144 204.891 34.1709 204.985C33.6274 205.079 33.1102 204.716 33.0151 204.172C32.9201 203.629 33.2831 203.111 33.8263 203.015C34.0882 202.969 34.3577 203.029 34.5752 203.182C34.7927 203.335 34.9403 203.568 34.9854 203.83ZM41.1709 203.985C41.7144 203.891 42.0789 203.374 41.9854 202.83C41.9403 202.568 41.7927 202.335 41.5752 202.182C41.3577 202.029 41.0882 201.969 40.8263 202.015C40.2831 202.111 39.9201 202.629 40.0151 203.172C40.1102 203.716 40.6274 204.079 41.1709 203.985ZM5.98537 214.83C6.07888 215.374 5.71441 215.891 5.17088 215.985C4.62736 216.079 4.11017 215.716 4.01512 215.172C3.92007 214.628 4.28307 214.11 4.82632 214.014C5.37093 213.922 5.88828 214.286 5.98537 214.83ZM12.534 214.845C12.8762 214.629 13.0543 214.228 12.9853 213.829C12.8881 213.288 12.3749 212.925 11.8325 213.013C11.4335 213.081 11.1147 213.383 11.0249 213.778C10.9352 214.173 11.0922 214.583 11.4226 214.816C11.7531 215.05 12.1918 215.062 12.534 214.845ZM20.9853 212.83C21.0543 213.228 20.8762 213.629 20.534 213.845C20.1918 214.062 19.7531 214.05 19.4226 213.816C19.0922 213.583 18.9352 213.173 19.0249 212.778C19.1147 212.384 19.4335 212.082 19.8325 212.014C20.3757 211.922 20.8913 212.287 20.9853 212.83ZM27.534 211.845C27.8762 211.629 28.0543 211.228 27.9853 210.83C27.8913 210.287 27.3757 209.922 26.8325 210.014C26.4335 210.082 26.1147 210.384 26.0249 210.778C25.9352 211.173 26.0922 211.583 26.4226 211.816C26.7531 212.05 27.1918 212.062 27.534 211.845ZM35.9853 209.83C36.0543 210.228 35.8762 210.629 35.534 210.845C35.1918 211.062 34.7531 211.05 34.4226 210.816C34.0922 210.583 33.9352 210.173 34.0249 209.778C34.1147 209.384 34.4335 209.082 34.8325 209.014C35.3758 208.922 35.8913 209.287 35.9853 209.83ZM42.534 209.845C42.8762 209.629 43.0543 209.228 42.9853 208.83C42.8913 208.287 42.3758 207.922 41.8325 208.014C41.4335 208.082 41.1147 208.384 41.0249 208.778C40.9352 209.173 41.0922 209.583 41.4226 209.816C41.7531 210.05 42.1918 210.062 42.534 209.845ZM6.9853 220.83C7.05434 221.228 6.87618 221.629 6.534 221.845C6.19181 222.062 5.75308 222.05 5.42264 221.816C5.09219 221.583 4.93519 221.173 5.02494 220.778C5.11469 220.384 5.43348 220.082 5.83249 220.014C6.37575 219.922 6.8913 220.287 6.9853 220.83ZM13.1709 220.985C13.7144 220.891 14.0789 220.374 13.9854 219.83C13.8883 219.286 13.3709 218.922 12.8263 219.014C12.2831 219.11 11.9201 219.628 12.0151 220.172C12.1102 220.716 12.6274 221.079 13.1709 220.985ZM21.9854 217.83C22.0789 218.374 21.7144 218.891 21.1709 218.985C20.6274 219.079 20.1102 218.716 20.0151 218.172C19.9201 217.628 20.2831 217.11 20.8263 217.014C21.3709 216.922 21.8883 217.286 21.9854 217.83ZM28.1709 217.985C28.7144 217.891 29.0789 217.374 28.9854 216.83C28.8883 216.286 28.3709 215.922 27.8263 216.014C27.2831 216.11 26.9201 216.628 27.0151 217.172C27.1102 217.716 27.6274 218.079 28.1709 217.985ZM36.9854 215.83C37.0789 216.374 36.7144 216.891 36.1709 216.985C35.6274 217.079 35.1102 216.716 35.0151 216.172C34.9201 215.629 35.2831 215.111 35.8263 215.015C36.0882 214.969 36.3577 215.029 36.5752 215.182C36.7927 215.335 36.9403 215.568 36.9854 215.83ZM43.1709 215.985C43.7144 215.891 44.0789 215.374 43.9854 214.83C43.9403 214.568 43.7927 214.335 43.5752 214.182C43.3577 214.029 43.0882 213.969 42.8263 214.015C42.2831 214.111 41.9201 214.629 42.0151 215.172C42.1102 215.716 42.6274 216.079 43.1709 215.985ZM7.98537 226.83C8.07888 227.374 7.71441 227.891 7.17088 227.985C6.62736 228.079 6.11017 227.716 6.01512 227.172C5.92007 226.629 6.28307 226.111 6.82632 226.015C7.08819 225.969 7.35767 226.029 7.57518 226.182C7.79268 226.335 7.94029 226.568 7.98537 226.83ZM14.534 226.846C14.8762 226.63 15.0543 226.229 14.9853 225.83C14.9417 225.569 14.7954 225.335 14.5789 225.182C14.3624 225.029 14.0936 224.969 13.8325 225.015C13.4335 225.083 13.1147 225.384 13.0249 225.779C12.9352 226.173 13.0922 226.583 13.4226 226.817C13.7531 227.05 14.1918 227.062 14.534 226.846ZM22.9853 223.83C23.0543 224.229 22.8762 224.63 22.534 224.846C22.1918 225.062 21.7531 225.05 21.4226 224.817C21.0922 224.583 20.9352 224.173 21.0249 223.779C21.1147 223.384 21.4335 223.083 21.8325 223.015C22.0936 222.969 22.3624 223.029 22.5789 223.182C22.7954 223.335 22.9417 223.569 22.9853 223.83ZM29.534 223.845C29.8762 223.629 30.0543 223.228 29.9853 222.83C29.8913 222.287 29.3757 221.922 28.8325 222.014C28.4335 222.082 28.1147 222.384 28.0249 222.778C27.9352 223.173 28.0922 223.583 28.4226 223.816C28.7531 224.05 29.1918 224.062 29.534 223.845ZM37.9853 221.83C38.0543 222.228 37.8762 222.629 37.534 222.845C37.1918 223.062 36.7531 223.05 36.4226 222.816C36.0922 222.583 35.9352 222.173 36.0249 221.778C36.1147 221.384 36.4335 221.082 36.8325 221.014C37.3758 220.922 37.8913 221.287 37.9853 221.83ZM44.534 221.845C44.8762 221.629 45.0543 221.228 44.9853 220.83C44.8913 220.287 44.3758 219.922 43.8325 220.014C43.4335 220.082 43.1147 220.384 43.0249 220.778C42.9352 221.173 43.0922 221.583 43.4226 221.816C43.7531 222.05 44.1918 222.062 44.534 221.845Z" fill="url(#paint3_linear)"/>
<path d="M274.501 187.25C274.501 187.25 283.337 135.766 296.558 136.61C309.78 137.455 296.82 169.591 274.501 187.25Z" fill="url(#paint4_linear)"/>
<path fill-rule="evenodd" clip-rule="evenodd" d="M294.981 142.168C288.887 170.603 271.545 191.935 260.822 203.198C260.739 203.287 260.742 203.425 260.83 203.509C260.918 203.593 261.057 203.59 261.141 203.502C271.89 192.209 289.288 170.82 295.412 142.26C295.437 142.141 295.361 142.024 295.242 141.999C295.124 141.973 295.007 142.049 294.981 142.168Z" fill="white"/>
<path fill-rule="evenodd" clip-rule="evenodd" d="M288.016 171.787C285.161 174.505 282.468 176.861 280.081 178.846C279.988 178.924 279.975 179.062 280.053 179.155C280.13 179.249 280.269 179.263 280.363 179.184C282.756 177.194 285.456 174.831 288.319 172.106C288.408 172.023 288.411 171.883 288.327 171.794C288.243 171.706 288.105 171.703 288.016 171.787Z" fill="white"/>
<path fill-rule="evenodd" clip-rule="evenodd" d="M295.062 158.342C292.206 161.06 289.513 163.416 287.127 165.401C287.034 165.478 287.021 165.617 287.098 165.71C287.177 165.804 287.315 165.816 287.408 165.739C289.801 163.749 292.501 161.386 295.366 158.66C295.453 158.576 295.456 158.438 295.373 158.349C295.289 158.261 295.15 158.258 295.062 158.342Z" fill="white"/>
<path fill-rule="evenodd" clip-rule="evenodd" d="M299.496 144.275C298.613 145.393 297.544 146.569 296.405 147.707C295.195 148.917 293.908 150.086 292.683 151.104C292.59 151.183 292.577 151.321 292.654 151.414C292.732 151.508 292.871 151.521 292.964 151.443C294.2 150.415 295.496 149.238 296.716 148.019C297.865 146.87 298.945 145.684 299.842 144.547C299.917 144.452 299.901 144.314 299.805 144.238C299.71 144.163 299.571 144.18 299.496 144.275Z" fill="white"/>
<path fill-rule="evenodd" clip-rule="evenodd" d="M290.244 145.553C290.938 148.407 291.33 152.036 291.42 155.129C291.424 155.25 291.524 155.346 291.646 155.342C291.768 155.339 291.863 155.237 291.86 155.116C291.768 151.995 291.376 148.349 290.672 145.449C290.643 145.331 290.525 145.259 290.406 145.288C290.288 145.317 290.216 145.435 290.244 145.553Z" fill="white"/>
<path fill-rule="evenodd" clip-rule="evenodd" d="M283.627 160.604C284.321 163.459 284.712 167.086 284.802 170.179C284.806 170.301 284.907 170.397 285.029 170.394C285.15 170.389 285.246 170.288 285.242 170.166C285.15 167.046 284.759 163.4 284.055 160.5C284.026 160.382 283.907 160.31 283.789 160.339C283.671 160.368 283.598 160.487 283.627 160.604Z" fill="white"/>
</g>
<g opacity="0.923131">
<path opacity="0.52181" fill-rule="evenodd" clip-rule="evenodd" d="M309.779 -0.65797C310.109 -0.7947 310.323 -1.11655 310.322 -1.47296C310.322 -1.70543 310.23 -1.92862 310.066 -2.09318C309.902 -2.25773 309.679 -2.35008 309.446 -2.3498C309.09 -2.35165 308.767 -2.13823 308.63 -1.80938C308.492 -1.48052 308.567 -1.10124 308.819 -0.848947C309.071 -0.596659 309.45 -0.52124 309.779 -0.65797ZM303.236 -1.82329C303.235 -1.46729 303.019 -1.14708 302.69 -1.01215C302.36 -0.87722 301.982 -0.95418 301.731 -1.2071C301.48 -1.46003 301.407 -1.83903 301.545 -2.16717C301.683 -2.49532 302.005 -2.70789 302.361 -2.70565C302.595 -2.70568 302.818 -2.61246 302.983 -2.44673C303.147 -2.28101 303.238 -2.05654 303.236 -1.82329ZM295.976 -0.283108C296.462 -0.278854 296.859 -0.668779 296.864 -1.15425C296.867 -1.38827 296.777 -1.614 296.613 -1.78088C296.449 -1.94776 296.224 -2.04184 295.99 -2.04205C295.505 -2.04562 295.108 -1.65514 295.104 -1.16966C295.1 -0.684185 295.491 -0.287362 295.976 -0.283108ZM290.644 -1.35132C290.636 -0.867103 290.239 -0.480451 289.754 -0.486178C289.27 -0.491905 288.882 -0.887859 288.885 -1.37213C288.888 -1.85641 289.282 -2.24695 289.767 -2.24597C290.002 -2.2455 290.228 -2.15055 290.393 -1.98239C290.558 -1.81423 290.648 -1.58691 290.644 -1.35132ZM283.002 -0.903487C283.334 -1.03481 283.554 -1.35385 283.559 -1.71103C283.562 -2.19101 283.182 -2.58613 282.703 -2.60212C282.346 -2.61181 282.018 -2.40475 281.874 -2.07803C281.73 -1.75131 281.797 -1.36972 282.044 -1.11216C282.292 -0.854612 282.67 -0.772168 283.002 -0.903487ZM276.445 -1.04513C276.929 -1.03726 277.328 -1.4214 277.339 -1.90518C277.343 -2.14122 277.253 -2.36905 277.088 -2.53812C276.924 -2.70719 276.698 -2.80351 276.462 -2.80572C275.979 -2.80713 275.585 -2.41769 275.58 -1.9338C275.575 -1.44991 275.962 -1.05299 276.445 -1.04513ZM277.289 3.43096C277.288 3.78696 277.073 4.10717 276.743 4.2421C276.413 4.37703 276.035 4.30007 275.784 4.04714C275.534 3.79422 275.46 3.41522 275.598 3.08707C275.736 2.75893 276.059 2.54636 276.415 2.5486C276.648 2.54857 276.872 2.64179 277.036 2.80751C277.2 2.97324 277.291 3.19771 277.289 3.43096ZM282.962 4.44514C283.292 4.31021 283.507 3.99 283.508 3.634C283.511 3.40075 283.42 3.17628 283.255 3.01056C283.091 2.84483 282.867 2.75161 282.634 2.75164C282.278 2.7494 281.955 2.96197 281.817 3.29012C281.679 3.61826 281.753 3.99726 282.003 4.25019C282.254 4.50311 282.633 4.58007 282.962 4.44514ZM290.594 3.99023C290.592 4.4757 290.197 4.86781 289.712 4.86646C289.227 4.86512 288.834 4.47084 288.835 3.98536C288.835 3.49988 289.229 3.10665 289.714 3.10662C289.948 3.1066 290.173 3.19981 290.338 3.36562C290.503 3.53144 290.595 3.75621 290.594 3.99023ZM296.084 4.20286C296.57 4.20413 296.964 3.81163 296.967 3.32573C296.963 2.8404 296.572 2.44747 296.087 2.44148C295.601 2.44159 295.208 2.83522 295.207 3.32112C295.206 3.80703 295.599 4.20159 296.084 4.20286ZM303.186 3.52925C303.184 4.01493 302.789 4.40722 302.303 4.40591C301.818 4.4046 301.425 4.01019 301.426 3.52451C301.427 3.03883 301.82 2.64542 302.306 2.64535C302.792 2.64836 303.185 3.0429 303.186 3.52925ZM309.389 4.76176C309.875 4.76307 310.269 4.37078 310.272 3.88511C310.271 3.39875 309.878 3.00421 309.392 3.0012C308.906 3.00127 308.512 3.39469 308.512 3.88036C308.511 4.36604 308.904 4.76045 309.389 4.76176ZM277.239 8.7835C277.237 9.26918 276.842 9.66147 276.357 9.66016C275.871 9.65885 275.479 9.26444 275.479 8.77876C275.48 8.29308 275.874 7.89967 276.359 7.8996C276.845 7.90261 277.238 8.29715 277.239 8.7835ZM282.576 9.8632C283.061 9.86451 283.456 9.47222 283.458 8.98654C283.457 8.50019 283.065 8.10565 282.578 8.10264C282.093 8.10271 281.699 8.49612 281.699 8.9818C281.698 9.46748 282.09 9.86189 282.576 9.8632ZM290.544 9.34202C290.543 9.69817 290.327 10.0185 289.998 10.1535C289.668 10.2885 289.29 10.2116 289.039 9.95857C288.788 9.70556 288.715 9.32641 288.853 8.99812C288.991 8.66983 289.314 8.45715 289.67 8.45936C290.155 8.46238 290.546 8.85712 290.544 9.34202ZM296.37 9.48994C296.699 9.35493 296.915 9.03458 296.916 8.67843C296.918 8.19353 296.527 7.79879 296.042 7.79577C295.686 7.79356 295.363 8.00624 295.225 8.33453C295.087 8.66282 295.16 9.04197 295.411 9.29498C295.662 9.54799 296.04 9.62495 296.37 9.48994ZM303.135 8.8819C303.134 9.2379 302.919 9.55811 302.589 9.69304C302.26 9.82797 301.881 9.75101 301.63 9.49809C301.38 9.24517 301.306 8.86616 301.444 8.53802C301.582 8.20987 301.905 7.9973 302.261 7.99954C302.494 7.99951 302.718 8.09274 302.882 8.25846C303.046 8.42418 303.138 8.64865 303.135 8.8819ZM309.675 10.0489C310.004 9.91396 310.22 9.59375 310.221 9.23775C310.223 9.0045 310.132 8.78003 309.968 8.61431C309.804 8.44859 309.58 8.35536 309.347 8.35539C308.991 8.35315 308.668 8.56572 308.53 8.89387C308.392 9.22201 308.466 9.60102 308.716 9.85394C308.967 10.1069 309.345 10.1838 309.675 10.0489ZM277.189 14.1361C277.188 14.4921 276.972 14.8124 276.642 14.9473C276.313 15.0822 275.934 15.0053 275.684 14.7523C275.433 14.4994 275.36 14.1204 275.498 13.7923C275.636 13.4641 275.958 13.2515 276.314 13.2538C276.548 13.2538 276.771 13.347 276.936 13.5127C277.1 13.6784 277.191 13.9029 277.189 14.1361ZM282.862 15.1503C283.191 15.0154 283.407 14.6952 283.408 14.3392C283.41 14.1059 283.319 13.8815 283.155 13.7157C282.991 13.55 282.767 13.4568 282.533 13.4568C282.177 13.4546 281.855 13.6672 281.717 13.9953C281.579 14.3235 281.652 14.7025 281.903 14.9554C282.154 15.2083 282.532 15.2853 282.862 15.1503ZM290.494 14.695C290.492 15.1807 290.097 15.573 289.612 15.5716C289.126 15.5703 288.734 15.1759 288.734 14.6902C288.735 14.2046 289.129 13.8112 289.614 13.8111C290.1 13.8141 290.493 14.2086 290.494 14.695ZM295.984 14.9081C296.469 14.9094 296.864 14.5173 296.866 14.0318C296.867 13.7978 296.775 13.573 296.61 13.4072C296.444 13.2414 296.22 13.1482 295.986 13.1482C295.501 13.1483 295.107 13.5415 295.106 14.027C295.106 14.5124 295.498 14.9067 295.984 14.9081ZM303.952 14.3877C303.95 14.8732 303.555 15.2653 303.069 15.2639C302.584 15.2626 302.191 14.8683 302.192 14.3828C302.193 13.8973 302.586 13.5041 303.072 13.5041C303.306 13.5041 303.53 13.5973 303.695 13.7631C303.86 13.9289 303.953 14.1537 303.952 14.3877ZM309.289 15.467C309.774 15.4683 310.169 15.0762 310.171 14.5907C310.172 14.3567 310.08 14.1319 309.915 13.9661C309.749 13.8003 309.525 13.7071 309.291 13.7071C308.806 13.7071 308.412 14.1004 308.411 14.5859C308.411 15.0713 308.803 15.4656 309.289 15.467ZM277.139 19.4887C277.137 19.9744 276.742 20.3667 276.256 20.3653C275.771 20.364 275.378 19.9696 275.379 19.4839C275.38 18.9983 275.773 18.6049 276.259 18.6048C276.745 18.6078 277.138 19.0023 277.139 19.4887ZM282.812 20.5028C283.141 20.3677 283.357 20.0472 283.358 19.6909C283.356 19.207 282.967 18.8139 282.484 18.8079C282.127 18.8057 281.805 19.0185 281.667 19.3469C281.529 19.6754 281.602 20.0547 281.853 20.3078C282.103 20.5609 282.482 20.6379 282.812 20.5028ZM290.444 20.0472C290.443 20.4034 290.227 20.7237 289.897 20.8587C289.568 20.9937 289.189 20.9168 288.939 20.6638C288.688 20.4108 288.615 20.0316 288.753 19.7033C288.891 19.375 289.213 19.1623 289.569 19.1646C290.054 19.1676 290.445 19.5623 290.444 20.0472ZM296.269 20.1951C296.599 20.0601 296.815 19.7398 296.816 19.3836C296.817 18.8987 296.426 18.504 295.941 18.501C295.585 18.4987 295.263 18.7114 295.125 19.0397C294.987 19.368 295.06 19.7472 295.311 20.0002C295.561 20.2532 295.94 20.3301 296.269 20.1951ZM303.902 19.7395C303.901 20.0956 303.685 20.416 303.355 20.551C303.026 20.686 302.647 20.609 302.397 20.356C302.146 20.103 302.072 19.7239 302.211 19.3956C302.349 19.0673 302.671 18.8546 303.027 18.8568C303.512 18.8598 303.903 19.2546 303.902 19.7395ZM309.574 20.754C309.904 20.619 310.12 20.2987 310.121 19.9425C310.122 19.4576 309.731 19.0629 309.246 19.0599C308.89 19.0576 308.568 19.2703 308.43 19.5986C308.292 19.9269 308.365 20.3061 308.616 20.5591C308.866 20.8121 309.245 20.889 309.574 20.754ZM277.088 24.8409C277.087 25.1971 276.872 25.5174 276.542 25.6524C276.212 25.7874 275.834 25.7105 275.583 25.4575C275.333 25.2044 275.259 24.8253 275.397 24.497C275.535 24.1687 275.858 23.956 276.214 23.9583C276.699 23.9613 277.09 24.356 277.088 24.8409ZM282.425 25.921C282.911 25.9223 283.306 25.53 283.308 25.0443C283.307 24.558 282.914 24.1634 282.428 24.1604C281.942 24.1605 281.549 24.5539 281.548 25.0396C281.547 25.5253 281.94 25.9197 282.425 25.921ZM290.546 24.5335C290.544 25.0192 290.149 25.4115 289.664 25.4102C289.178 25.4089 288.786 25.0145 288.787 24.5288C288.787 24.0431 289.181 23.6497 289.666 23.6496C290.153 23.6527 290.545 24.0472 290.546 24.5335ZM295.883 25.6133C296.369 25.6146 296.763 25.2223 296.766 24.7366C296.765 24.2502 296.372 23.8557 295.886 23.8527C295.4 23.8528 295.006 24.2462 295.006 24.7318C295.005 25.2175 295.398 25.6119 295.883 25.6133ZM303.851 25.0929C303.849 25.5783 303.454 25.9705 302.969 25.9691C302.484 25.9678 302.091 25.5735 302.092 25.088C302.092 24.6025 302.486 24.2093 302.971 24.2093C303.205 24.2092 303.43 24.3025 303.595 24.4683C303.76 24.6341 303.852 24.8589 303.851 25.0929ZM309.188 26.1721C309.674 26.1735 310.068 25.7814 310.071 25.2959C310.072 25.0619 309.979 24.8371 309.814 24.6713C309.649 24.5055 309.425 24.4123 309.191 24.4123C308.705 24.4123 308.311 24.8056 308.311 25.291C308.31 25.7765 308.703 26.1708 309.188 26.1721ZM277.038 30.1943C277.036 30.6798 276.641 31.0719 276.156 31.0705C275.67 31.0692 275.278 30.6749 275.278 30.1894C275.279 29.704 275.673 29.3107 276.158 29.3107C276.392 29.3107 276.617 29.4039 276.782 29.5697C276.947 29.7355 277.039 29.9603 277.038 30.1943ZM282.711 31.2081C283.041 31.0732 283.256 30.753 283.257 30.397C283.26 30.1637 283.168 29.9393 283.004 29.7735C282.84 29.6078 282.616 29.5146 282.383 29.5146C282.027 29.5124 281.704 29.7249 281.566 30.0531C281.428 30.3812 281.502 30.7602 281.752 31.0132C282.003 31.2661 282.381 31.343 282.711 31.2081ZM290.496 29.8862C290.495 30.2422 290.279 30.5624 289.95 30.6973C289.62 30.8323 289.242 30.7553 288.991 30.5024C288.74 30.2495 288.667 29.8705 288.805 29.5423C288.943 29.2142 289.265 29.0016 289.621 29.0038C289.855 29.0038 290.079 29.097 290.243 29.2628C290.407 29.4285 290.498 29.6529 290.496 29.8862ZM296.169 30.9003C296.499 30.7653 296.714 30.445 296.715 30.0888C296.717 29.6039 296.326 29.2092 295.841 29.2062C295.485 29.2039 295.162 29.4166 295.024 29.7449C294.886 30.0732 294.96 30.4524 295.21 30.7054C295.461 30.9584 295.839 31.0353 296.169 30.9003ZM303.801 30.4447C303.8 30.8008 303.584 31.1212 303.255 31.2562C302.925 31.3912 302.547 31.3142 302.296 31.0612C302.045 30.8082 301.972 30.429 302.11 30.1008C302.248 29.7725 302.571 29.5598 302.927 29.562C303.412 29.565 303.803 29.9598 303.801 30.4447ZM309.474 31.4592C309.804 31.3242 310.019 31.0039 310.02 30.6477C310.022 30.1628 309.631 29.7681 309.146 29.765C308.79 29.7628 308.467 29.9755 308.329 30.3038C308.191 30.6321 308.265 31.0112 308.515 31.2643C308.766 31.5173 309.144 31.5942 309.474 31.4592Z" fill="url(#paint5_linear)"/>
<path d="M272.384 206.429C272.384 206.429 286.497 167.095 296.796 169.596C307.096 172.098 292.421 195.617 272.384 206.429Z" fill="url(#paint6_linear)"/>
<path fill-rule="evenodd" clip-rule="evenodd" d="M294.781 173.756C286.03 195.312 269.404 209.709 259.392 217.093C259.314 217.151 259.297 217.261 259.354 217.339C259.412 217.418 259.522 217.434 259.6 217.377C269.638 209.973 286.316 195.538 295.108 173.889C295.145 173.798 295.101 173.696 295.011 173.659C294.921 173.623 294.818 173.666 294.781 173.756Z" fill="white"/>
<path fill-rule="evenodd" clip-rule="evenodd" d="M285.18 196.124C282.552 197.869 280.103 199.351 277.947 200.583C277.863 200.631 277.834 200.738 277.882 200.823C277.93 200.908 278.038 200.937 278.122 200.888C280.284 199.653 282.739 198.167 285.374 196.417C285.455 196.364 285.477 196.254 285.424 196.173C285.37 196.092 285.261 196.07 285.18 196.124Z" fill="white"/>
<path fill-rule="evenodd" clip-rule="evenodd" d="M292.598 186.51C289.971 188.255 287.522 189.737 285.366 190.969C285.282 191.017 285.253 191.125 285.301 191.209C285.349 191.293 285.457 191.322 285.541 191.274C287.703 190.039 290.158 188.553 292.793 186.803C292.874 186.749 292.896 186.64 292.842 186.559C292.788 186.478 292.68 186.456 292.598 186.51Z" fill="white"/>
<path fill-rule="evenodd" clip-rule="evenodd" d="M298.046 176.043C297.195 176.802 296.189 177.579 295.134 178.318C294.013 179.103 292.836 179.845 291.73 180.477C291.645 180.526 291.616 180.634 291.664 180.717C291.712 180.802 291.82 180.832 291.904 180.783C293.021 180.145 294.205 179.398 295.336 178.606C296.4 177.861 297.416 177.077 298.28 176.306C298.353 176.241 298.359 176.13 298.295 176.057C298.23 175.985 298.119 175.979 298.046 176.043Z" fill="white"/>
<path fill-rule="evenodd" clip-rule="evenodd" d="M290.58 175.765C290.73 178.11 290.534 181.023 290.175 183.473C290.162 183.568 290.228 183.658 290.324 183.672C290.42 183.686 290.509 183.62 290.524 183.524C290.885 181.052 291.083 178.125 290.931 175.743C290.925 175.646 290.841 175.573 290.744 175.579C290.647 175.585 290.573 175.668 290.58 175.765Z" fill="white"/>
<path fill-rule="evenodd" clip-rule="evenodd" d="M283.275 186.704C283.426 189.049 283.229 191.961 282.871 194.411C282.857 194.507 282.924 194.597 283.02 194.611C283.116 194.624 283.205 194.558 283.219 194.462C283.58 191.991 283.779 189.064 283.627 186.681C283.621 186.584 283.536 186.511 283.439 186.517C283.343 186.524 283.269 186.607 283.275 186.704Z" fill="white"/>
</g>
<g opacity="0.923131">
<path d="M231.437 187.469C231.437 187.469 234.328 162.522 227.922 144.726C221.516 126.929 231.427 128.791 225.76 116.8C220.092 104.808 230.911 107.895 224.735 95.8662C218.559 83.8369 228.49 82.9273 223.734 73.5776C221.001 81.3312 212.551 87.1951 215.711 95.5049C218.871 103.815 208.626 110.774 214.398 119.931C220.17 129.089 204.397 150.209 211.016 168.236C217.634 186.263 230.786 201.289 231.437 187.469Z" fill="url(#paint7_linear)"/>
<path d="M241.569 206.957C241.569 206.957 205.865 159.883 205.691 136.826C205.516 113.769 186.542 115.103 187.836 135.987C189.129 156.87 225.533 213.768 239.414 216.582C253.295 219.396 241.569 206.957 241.569 206.957Z" fill="url(#paint8_linear)"/>
<path d="M196.045 119.923C196.045 119.923 190.139 156.168 243.779 216.95" stroke="white" stroke-width="0.55"/>
<path d="M205.89 139.849C205.89 139.849 200.315 143.897 200.698 148.408C196.964 145.348 192.885 142.735 188.543 140.625" stroke="white" stroke-width="0.55"/>
<path d="M210.631 155.797C210.631 155.797 206.938 160.801 207.471 164.588C207.471 164.588 200.27 159.301 195.772 159.715" stroke="white" stroke-width="0.55"/>
<path d="M218.991 172.572C218.991 172.572 215.861 177.109 216.746 181.235C210.344 179.155 206.888 179.878 206.888 179.878" stroke="white" stroke-width="0.55"/>
<path d="M226.585 185.172C225.07 187.813 224.608 190.929 225.291 193.896C219.849 191.301 215.579 192.909 215.579 192.909" stroke="white" stroke-width="0.55"/>
<path d="M233.6 195.787C233.6 195.787 232.425 200.543 233.211 204.346C228.054 203.031 224.685 204.582 224.685 204.582" stroke="white" stroke-width="0.55"/>
<path d="M231.77 204.219C231.77 204.219 226.614 162.979 215.374 151.283C204.134 139.588 214.342 130.941 223.952 142.089C233.561 153.236 243.176 199.778 237.584 208.004C231.991 216.23 231.77 204.219 231.77 204.219Z" fill="url(#paint9_linear)"/>
<path d="M211.926 138.033C211.926 138.033 232.712 153.379 235.569 210.336" stroke="white" stroke-width="0.55"/>
<path d="M216.758 152.909C216.758 152.909 221.553 152.207 223.577 154.667C223.952 151.288 224.721 147.964 225.87 144.764" stroke="white" stroke-width="0.55"/>
<path d="M222.211 163.265C222.211 163.265 226.525 163.97 228.122 166.138C228.122 166.138 229.145 159.938 231.613 157.934" stroke="white" stroke-width="0.55"/>
<path d="M226.231 175.826C226.231 175.826 230.035 176.575 231.619 179.082C233.819 174.889 235.912 173.558 235.912 173.558" stroke="white" stroke-width="0.55"/>
<path d="M228.609 185.888C230.674 186.476 232.44 187.825 233.552 189.662C235.018 185.686 237.958 184.395 237.958 184.395" stroke="white" stroke-width="0.55"/>
<path d="M230.301 194.684C230.301 194.684 233.226 196.524 234.7 198.801C236.652 195.611 239.103 194.731 239.103 194.731" stroke="white" stroke-width="0.55"/>
</g>
<defs>
<linearGradient id="paint0_linear" x1="234.632" y1="29.6626" x2="302.303" y2="60.1499" gradientUnits="userSpaceOnUse">
<stop stop-color="#A9C6FF"/>
<stop offset="1" stop-color="#DCE9FF"/>
</linearGradient>
<linearGradient id="paint1_linear" x1="261.988" y1="25.1755" x2="187.705" y2="90.2925" gradientUnits="userSpaceOnUse">
<stop stop-color="#A9C6FF"/>
<stop offset="1" stop-color="#DCE9FF"/>
</linearGradient>
<linearGradient id="paint2_linear" x1="253.567" y1="53.0548" x2="209.119" y2="66.9992" gradientUnits="userSpaceOnUse">
<stop stop-color="#A9C6FF"/>
<stop offset="1" stop-color="#DCE9FF"/>
</linearGradient>
<linearGradient id="paint3_linear" x1="536.634" y1="1734.13" x2="1014.9" y2="-1.00227" gradientUnits="userSpaceOnUse">
<stop stop-color="#A9C6FF"/>
<stop offset="1" stop-color="#DCE9FF"/>
</linearGradient>
<linearGradient id="paint4_linear" x1="280.426" y1="151.144" x2="293.049" y2="171.773" gradientUnits="userSpaceOnUse">
<stop stop-color="#A9C6FF"/>
<stop offset="1" stop-color="#DCE9FF"/>
</linearGradient>
<linearGradient id="paint5_linear" x1="504.849" y1="1417.25" x2="1184.47" y2="-13.3861" gradientUnits="userSpaceOnUse">
<stop stop-color="#A9C6FF"/>
<stop offset="1" stop-color="#DCE9FF"/>
</linearGradient>
<linearGradient id="paint6_linear" x1="315.803" y1="165.543" x2="288.924" y2="157.066" gradientUnits="userSpaceOnUse">
<stop stop-color="#A9C6FF"/>
<stop offset="1" stop-color="#DCE9FF"/>
</linearGradient>
<linearGradient id="paint7_linear" x1="230.809" y1="73.2774" x2="185.395" y2="102.37" gradientUnits="userSpaceOnUse">
<stop stop-color="#A9C6FF"/>
<stop offset="1" stop-color="#DCE9FF"/>
</linearGradient>
<linearGradient id="paint8_linear" x1="206.553" y1="78.4955" x2="266.358" y2="120.743" gradientUnits="userSpaceOnUse">
<stop stop-color="#A9C6FF"/>
<stop offset="1" stop-color="#DCE9FF"/>
</linearGradient>
<linearGradient id="paint9_linear" x1="214.921" y1="98.395" x2="248.767" y2="105.231" gradientUnits="userSpaceOnUse">
<stop stop-color="#A9C6FF"/>
<stop offset="1" stop-color="#DCE9FF"/>
</linearGradient>
</defs>
</svg>
