<svg width="131" height="44" viewBox="0 0 131 44" fill="none" xmlns="http://www.w3.org/2000/svg">
<g clip-path="url(#clip0)">
<path d="M61.49 33.636V15.852C61.6633 15.8173 61.8887 15.8 62.166 15.8C62.4433 15.7827 62.7553 15.774 63.102 15.774C64.61 15.774 65.8233 15.9907 66.742 16.424C67.678 16.8573 68.3973 17.4813 68.9 18.296C69.42 19.0933 69.7667 20.064 69.94 21.208C70.1133 22.3347 70.2 23.6 70.2 25.004C70.2 25.576 70.174 26.1913 70.122 26.85C70.07 27.4913 69.9573 28.1413 69.784 28.8C69.628 29.4413 69.3853 30.0567 69.056 30.646C68.744 31.2353 68.3107 31.764 67.756 32.232C67.2187 32.6827 66.5513 33.0467 65.754 33.324C64.9567 33.584 63.9947 33.714 62.868 33.714C62.452 33.714 61.9927 33.688 61.49 33.636ZM57.72 15.852V33.636H55.328V34H57.72C58.708 34 59.6873 34.0087 60.658 34.026C61.646 34.0433 62.634 34.052 63.622 34.052C64.298 34.052 65.026 34 65.806 33.896C66.6033 33.792 67.4007 33.61 68.198 33.35C69.0127 33.0727 69.7927 32.7087 70.538 32.258C71.2833 31.8073 71.942 31.2353 72.514 30.542C73.1033 29.8487 73.5713 29.0253 73.918 28.072C74.2647 27.1187 74.438 26.0093 74.438 24.744C74.438 23.4613 74.2647 22.3433 73.918 21.39C73.5713 20.4367 73.1033 19.6133 72.514 18.92C71.9247 18.2267 71.2487 17.6547 70.486 17.204C69.7233 16.7533 68.9173 16.398 68.068 16.138C67.2187 15.8607 66.3607 15.67 65.494 15.566C64.6273 15.462 63.804 15.41 63.024 15.41C62.14 15.41 61.256 15.4273 60.372 15.462C59.488 15.4793 58.604 15.488 57.72 15.488H55.328V15.852H57.72ZM76.791 22.846V23.21H78.481V33.636H76.791V34H83.707V33.636H81.653V26.98C81.653 26.4253 81.731 25.9313 81.887 25.498C82.0604 25.0473 82.2597 24.666 82.485 24.354C82.7104 24.042 82.953 23.808 83.213 23.652C83.473 23.4787 83.6897 23.392 83.863 23.392C84.019 23.392 84.1317 23.4267 84.201 23.496C84.2877 23.548 84.3484 23.6173 84.383 23.704C84.4177 23.7733 84.435 23.8427 84.435 23.912C84.4524 23.9813 84.461 24.016 84.461 24.016C84.461 24.0333 84.4524 24.1027 84.435 24.224C84.4177 24.3453 84.3917 24.484 84.357 24.64C84.3397 24.7787 84.3224 24.9173 84.305 25.056C84.2877 25.1773 84.279 25.264 84.279 25.316C84.279 25.7667 84.4437 26.0787 84.773 26.252C85.1024 26.408 85.4664 26.486 85.865 26.486C86.4197 26.486 86.8184 26.3387 87.061 26.044C87.321 25.7493 87.451 25.342 87.451 24.822C87.451 24.1287 87.2257 23.5913 86.775 23.21C86.3244 22.8113 85.735 22.612 85.007 22.612C84.1404 22.612 83.4384 22.8547 82.901 23.34C82.381 23.808 81.965 24.3713 81.653 25.03H81.601V22.846H76.791ZM89.7236 17.256C89.7236 17.7587 89.9056 18.192 90.2696 18.556C90.6336 18.92 91.067 19.102 91.5696 19.102C92.0723 19.102 92.5056 18.92 92.8696 18.556C93.2336 18.192 93.4156 17.7587 93.4156 17.256C93.4156 16.7533 93.2336 16.32 92.8696 15.956C92.5056 15.592 92.0723 15.41 91.5696 15.41C91.067 15.41 90.6336 15.592 90.2696 15.956C89.9056 16.32 89.7236 16.7533 89.7236 17.256ZM88.2416 22.846V23.21H89.9836V33.636H88.2416V34H94.8976V33.636H93.1556V22.846H88.2416ZM95.1967 22.846V23.21H96.6007L101.775 34.702H101.983L106.585 23.21H107.781V22.846H104.141V23.21H106.143L103.309 30.412L100.111 23.21H101.983V22.846H95.1967ZM116.178 27.11H112.018C112.035 26.6593 112.061 26.1913 112.096 25.706C112.148 25.2033 112.252 24.744 112.408 24.328C112.564 23.8947 112.798 23.5393 113.11 23.262C113.439 22.9847 113.898 22.846 114.488 22.846C114.904 22.846 115.224 22.9413 115.45 23.132C115.692 23.3227 115.866 23.5567 115.97 23.834C116.074 24.1113 116.134 24.3887 116.152 24.666C116.169 24.9433 116.178 25.1773 116.178 25.368V27.11ZM112.018 27.474H119.688C119.688 26.59 119.532 25.836 119.22 25.212C118.908 24.5707 118.509 24.0507 118.024 23.652C117.538 23.2533 116.992 22.9587 116.386 22.768C115.779 22.5773 115.172 22.482 114.566 22.482C113.716 22.482 112.919 22.6553 112.174 23.002C111.446 23.3313 110.804 23.7733 110.25 24.328C109.712 24.8653 109.288 25.4893 108.976 26.2C108.664 26.9107 108.508 27.6387 108.508 28.384C108.508 29.32 108.672 30.1607 109.002 30.906C109.331 31.634 109.782 32.258 110.354 32.778C110.943 33.2807 111.628 33.6707 112.408 33.948C113.188 34.208 114.028 34.338 114.93 34.338C115.692 34.338 116.342 34.2253 116.88 34C117.417 33.792 117.868 33.532 118.232 33.22C118.596 32.8907 118.882 32.544 119.09 32.18C119.298 31.7987 119.445 31.4433 119.532 31.114L119.168 30.984C119.15 31.14 119.064 31.3827 118.908 31.712C118.769 32.0413 118.544 32.3793 118.232 32.726C117.937 33.0553 117.547 33.35 117.062 33.61C116.594 33.87 116.013 34 115.32 34C114.54 34 113.933 33.8353 113.5 33.506C113.066 33.1767 112.737 32.7607 112.512 32.258C112.286 31.738 112.148 31.166 112.096 30.542C112.044 29.9007 112.018 29.268 112.018 28.644V27.474ZM122.394 32.414C122.394 32.9167 122.576 33.35 122.94 33.714C123.304 34.0607 123.737 34.234 124.24 34.234C124.742 34.234 125.176 34.0607 125.54 33.714C125.904 33.35 126.086 32.9167 126.086 32.414C126.086 31.9113 125.904 31.478 125.54 31.114C125.176 30.75 124.742 30.568 124.24 30.568C123.737 30.568 123.304 30.75 122.94 31.114C122.576 31.478 122.394 31.9113 122.394 32.414Z" fill="white"/>
<path d="M7.74226 10.5831L1.35792 21.5131C0.924033 22.2613 1.4199 23.2047 2.25669 23.2047H5.47985V27.5636C5.47985 33.2563 9.84971 37.8756 15.2733 37.8756V37.8756C15.9551 37.8756 16.327 36.9973 15.8621 36.4768L14.6845 35.1431C12.8249 33.0286 11.7712 30.2311 11.7712 27.3359V23.1721H14.9944C15.8002 23.1721 16.327 22.2288 15.8931 21.4806L9.53979 10.5831C9.1369 9.86747 8.14516 9.86747 7.74226 10.5831Z" fill="#FFC01C"/>
<path d="M18.1634 13.2831L19.3411 14.6168C21.2007 16.7312 22.2544 19.5288 22.2544 22.4239V26.5552H19.0002C18.1944 26.5552 17.6676 27.4986 18.1015 28.2468L24.4858 39.1767C24.8887 39.8924 25.8804 39.8924 26.2833 39.1767L32.6677 28.2142C33.1016 27.466 32.6057 26.5227 31.7689 26.5227H28.5457V22.1637C28.5457 16.471 24.1759 11.8518 18.7523 11.8518C18.0395 11.8518 17.6676 12.7301 18.1634 13.2831Z" fill="#6672FB"/>
</g>
<defs>
<clipPath id="clip0">
<rect width="131" height="44" fill="white"/>
</clipPath>
</defs>
</svg>
